<?xml version="1.0" encoding="utf-8"?>
<!-- Generator: Adobe Illustrator 19.0.0, SVG Export Plug-In . SVG Version: 6.00 Build 0)  -->
<svg version="1.1" id="Layer_1" xmlns="http://www.w3.org/2000/svg" xmlns:xlink="http://www.w3.org/1999/xlink" x="0px" y="0px"
	 viewBox="0 0 108.5 108.5" style="enable-background:new 0 0 108.5 108.5;" xml:space="preserve">
<style type="text/css">
	.st0{fill:#1D1D1B;}
	.st1{fill:#F4410B;}
	.st2{fill:#F7330D;}
</style>
<g>
	<path class="st0" d="M85.4,7.7c-7.1,2.4-17.2,8.6-22.4,13.9L34.2,50.3c-2.6,2.6-2.6,7,0,9.6l14.4,14.4c2.6,2.6,7,2.6,9.6,0
		l28.8-28.8c5.3-5.3,11.5-15.4,13.9-22.5L108.5,0L85.4,7.7z M65.3,57.5c-4,4-10.4,4-14.4,0c-4-4-4-10.4,0-14.4c4-4,10.4-4,14.4,0
		C69.3,47.1,69.3,53.6,65.3,57.5z M84.5,38.4c-4,4-10.4,4-14.4,0c-4-4-4-10.4,0-14.4c4-4,10.4-4,14.4,0C88.5,28,88.5,34.4,84.5,38.4
		z"/>
	<path id="XMLID_4_" class="st0" d="M15,59.9l24-24c-5.3-5.3-13.9-5.3-19.2,0L5.4,50.3c-2.6,2.6-2.6,7,0,9.6
		C8,62.6,12.4,62.6,15,59.9z"/>
	<path id="XMLID_3_" class="st0" d="M48.6,93.5c-2.6,2.6-2.6,7,0,9.6c2.6,2.6,7,2.6,9.6,0l14.4-14.4c5.3-5.3,5.3-13.9,0-19.2
		L48.6,93.5z"/>
	<path id="XMLID_2_" class="st1" d="M27,67.1c-1.3,1.3-1.3,3.5,0,4.8l9.6,9.6c1.3,1.3,3.5,1.3,4.8,0l2.4-2.4L29.4,64.7L27,67.1z"/>
	<path id="XMLID_1_" class="st2" d="M0,108.5c13.6-6.8,33.9-20.3,27.1-27.1S6.8,94.9,0,108.5z"/>
</g>
</svg>
